<svg id="Layer_1" data-name="Layer 1" xmlns="http://www.w3.org/2000/svg" version="1.1" xmlns:xlink="http://www.w3.org/1999/xlink" viewBox="0 0 620 531">
  <defs>
    <style>
      .cls-1 {
        fill: url(#linear-gradient);
      }

      .cls-1, .cls-2, .cls-3, .cls-4, .cls-5, .cls-7, .cls-8 {
        stroke-width: 0px;
      }

      .cls-2 {
        fill: #64b722;
      }

      .cls-3 {
        fill: #62ad20;
      }

      .cls-4 {
        fill: url(#linear-gradient-2);
      }

      .cls-5 {
        fill: url(#linear-gradient-3);
      }

      .cls-7 {
        fill: #2a7923;
      }

      .cls-8 {
        fill: url(#linear-gradient-4);
      }
    </style>
    <linearGradient id="linear-gradient" x1="555.5" y1="656.3" x2="428.8" y2="529.7" gradientTransform="translate(0 -260)" gradientUnits="userSpaceOnUse">
      <stop offset="0" stop-color="#4d95c4"/>
      <stop offset="1" stop-color="#297a24"/>
    </linearGradient>
    <linearGradient id="linear-gradient-2" x1="187.6" y1="379.6" x2="576.5" y2="379.6" gradientTransform="translate(0 -260)" gradientUnits="userSpaceOnUse">
      <stop offset="0" stop-color="#297b27"/>
      <stop offset="1" stop-color="#63ad20"/>
    </linearGradient>
    <linearGradient id="linear-gradient-3" x1="448.1" y1="574.8" x2="390.8" y2="517.5" gradientTransform="translate(0 -260)" gradientUnits="userSpaceOnUse">
      <stop offset="0" stop-color="#479db3"/>
      <stop offset="1" stop-color="#297c25"/>
    </linearGradient>
    <linearGradient id="linear-gradient-4" x1="308" y1="483.3" x2="456.1" y2="483.3" gradientTransform="translate(0 -260)" gradientUnits="userSpaceOnUse">
      <stop offset="0" stop-color="#28762b"/>
      <stop offset="1" stop-color="#62ad2f"/>
    </linearGradient>
  </defs>
  <g>
    <g>
      <g>
        <path class="cls-1" d="M579.9,165.4v196.1c0,8.9-4.7,17.2-12.5,21.7l-172.8,100.9c-3.9,2.3-8.3,3.4-12.6,3.4v-84.8l120.6-70.4v-136.5l73.8-43.1c2.2,3.8,3.4,8.1,3.4,12.6h0Z"/>
        <path class="cls-3" d="M382,402.7v84.8c-4.3,0-8.6-1.1-12.5-3.3,0,0-.1,0-.2-.1l-172.8-100.9c-7.7-4.5-12.4-12.8-12.4-21.7v-196.1c0-4.5,1.2-8.9,3.4-12.6l73.9,43.1v136.5l120.6,70.4h0Z"/>
        <path class="cls-4" d="M502.6,195.8v-.7l-120.6-67.5-120.6,67.5v.7l-73.8-43.1c2.2-3.7,5.2-6.8,9.1-9,.1,0,.2-.1.3-.2h0l172.8-96.8c.1,0,.2,0,.3-.2,7.5-4.1,16.6-4,24.1,0h.1l172.8,96.8c4,2.2,7.2,5.4,9.4,9.2l-73.8,43.1h-.1Z"/>
      </g>
      <path class="cls-3" d="M382,266.2v83.3c-1.4,0-2.9-.3-4.2-1h-.1l-66.6-38.9c-2.5-1.6-4.1-4.2-4.4-7.2v-76.3c.1-1.4.6-2.8,1.3-3.9l74,44h0Z"/>
      <path class="cls-5" d="M457.3,226.3v75.9c-.2,3.1-1.9,5.9-4.5,7.5,0,0-.1,0-.2.1l-66.3,38.7h0c-1.3.6-2.8,1-4.2,1v-83.3l74-44c.7,1.2,1.2,2.7,1.3,4.2h0Z"/>
      <path class="cls-8" d="M456,222.1h0l-74,44-74-44h0c.7-1.3,1.8-2.4,3-3.1l67.1-37.6c2.5-1.2,5.4-1.1,8,0l66.8,37.4c1.3.8,2.4,1.9,3.2,3.2h-.1Z"/>
    </g>
    <g>
      <rect class="cls-2" x="183.9" y="387.4" width="20.6" height="20.6" rx="9.8" ry="9.8"/>
      <rect class="cls-7" x="223.6" y="91.1" width="20.6" height="20.6" rx="9.8" ry="9.8"/>
      <rect class="cls-7" x="263" y="70.5" width="20.6" height="20.6" rx="9.8" ry="9.8"/>
      <rect class="cls-7" x="302.2" y="51.5" width="20.6" height="20.6" rx="9.8" ry="9.8"/>
      <rect class="cls-2" x="164.7" y="348.4" width="20.6" height="20.6" rx="9.8" ry="9.8"/>
      <rect class="cls-2" x="144.1" y="328.8" width="20.6" height="20.6" rx="9.8" ry="9.8"/>
      <rect class="cls-2" x="144.1" y="289.3" width="20.6" height="20.6" rx="9.8" ry="9.8"/>
      <rect class="cls-2" x="144.1" y="210.3" width="20.6" height="20.6" rx="9.8" ry="9.8"/>
      <rect class="cls-2" x="85.6" y="210.3" width="20.6" height="20.6" rx="9.8" ry="9.8"/>
      <rect class="cls-2" x="144.1" y="170.9" width="20.6" height="20.6" rx="9.8" ry="9.8"/>
      <rect class="cls-2" x="65.9" y="170.9" width="20.6" height="20.6" rx="9.8" ry="9.8"/>
      <rect class="cls-2" x="164.7" y="308.9" width="20.6" height="20.6" rx="9.8" ry="9.8"/>
      <rect class="cls-2" x="164.7" y="269.4" width="20.6" height="20.6" rx="9.8" ry="9.8"/>
      <rect class="cls-2" x="85.6" y="269.4" width="20.6" height="20.6" rx="9.8" ry="9.8"/>
      <rect class="cls-2" x="164.7" y="229.9" width="20.6" height="20.6" rx="9.8" ry="9.8"/>
      <rect class="cls-2" x="105.3" y="229.9" width="20.6" height="20.6" rx="9.8" ry="9.8"/>
      <rect class="cls-2" x="164.7" y="190.4" width="20.6" height="20.6" rx="9.8" ry="9.8"/>
      <rect class="cls-2" x="124.9" y="190.4" width="20.6" height="20.6" rx="9.8" ry="9.8"/>
      <rect class="cls-2" x="124.9" y="249.8" width="20.6" height="20.6" rx="9.8" ry="9.8"/>
      <rect class="cls-2" x="124.9" y="308.9" width="20.6" height="20.6" rx="9.8" ry="9.8"/>
      <rect class="cls-2" x="124.9" y="150.2" width="20.6" height="20.6" rx="9.8" ry="9.8"/>
      <rect class="cls-7" x="124.9" y="111.1" width="20.6" height="20.6" rx="9.8" ry="9.8"/>
      <rect class="cls-7" x="164.7" y="130.4" width="20.6" height="20.6" rx="9.8" ry="9.8"/>
      <rect class="cls-7" x="183.9" y="111.1" width="20.6" height="20.6" rx="9.8" ry="9.8"/>
      <rect class="cls-7" x="183.9" y="70.5" width="20.6" height="20.6" rx="9.8" ry="9.8"/>
    </g>
  </g>
  <g>
  </g>
  <g>
  </g>
</svg>