<svg version="1.1" id="Layer_1" xmlns="http://www.w3.org/2000/svg" xmlns:xlink="http://www.w3.org/1999/xlink" x="0px" y="0px"
	 width="100%" viewBox="0 0 300 300" enable-background="new 0 0 300 300" xml:space="preserve">
<path fill="#612E8A" opacity="1.000000" stroke="none"
	d="
M110.928429,285.149750 
	C55.016109,266.215973 21.772846,227.889709 12.397906,170.121689 
	C3.208903,113.499382 33.538059,54.842617 84.396637,27.838161 
	C140.164520,-1.772995 207.175385,7.734329 250.762619,53.049305 
	C288.444122,92.224442 300.474762,139.350235 284.704803,191.379456 
	C268.827972,243.761108 232.395905,275.877075 178.941635,288.057556 
	C156.256851,293.226685 133.626633,291.799774 110.928429,285.149750 
M88.497971,109.150497 
	C80.058861,109.150497 71.619759,109.150497 63.298622,109.150497 
	C63.298622,112.414528 63.298622,114.994560 63.298622,117.513374 
	C74.937263,118.953186 75.429329,119.509544 75.429497,130.856766 
	C75.429733,146.521362 75.430328,162.185959 75.429276,177.850555 
	C75.428627,187.612442 74.555855,188.616364 64.997253,189.882904 
	C64.388168,189.963593 63.783298,190.076126 63.197430,190.170471 
	C63.197430,192.925598 63.197430,195.346603 63.197430,197.769440 
	C77.346680,197.769440 91.216644,197.769440 104.925972,197.769440 
	C104.925972,194.944839 104.925972,192.528534 104.925972,190.217804 
	C102.594887,189.792267 100.331505,189.926880 98.743660,188.956314 
	C96.553825,187.617783 93.370384,185.550110 93.234840,183.611435 
	C92.635544,175.039368 92.975586,166.401611 92.975586,157.545044 
	C105.822189,157.545044 118.239807,157.545044 131.269501,157.545044 
	C131.269501,164.887802 131.285248,172.000351 131.265335,179.112793 
	C131.242905,187.122726 130.082336,188.449707 122.055962,189.750107 
	C121.105995,189.903992 120.149078,190.014938 119.070129,190.162979 
	C119.070129,192.826813 119.070129,195.247910 119.070129,197.811035 
	C133.188858,197.811035 147.064850,197.811035 160.878754,197.811035 
	C160.878754,195.001389 160.878754,192.566437 160.878754,190.177658 
	C149.056137,188.545792 148.730408,188.167068 148.730392,176.351212 
	C148.730362,161.019897 148.730072,145.688599 148.730499,130.357285 
	C148.730804,119.582214 149.190506,119.069084 159.988831,117.660469 
	C160.273926,117.623276 160.522797,117.308388 160.783264,117.126694 
	C160.783264,114.549561 160.783264,112.001930 160.783264,109.476425 
	C146.643661,109.476425 132.894989,109.476425 119.214752,109.476425 
	C119.214752,112.383415 119.214752,114.958229 119.214752,117.582291 
	C121.391151,117.828873 123.436668,117.569260 124.946533,118.348083 
	C127.152946,119.486191 130.561417,121.249786 130.690277,122.955818 
	C131.297455,130.993744 130.960739,139.102982 130.960739,147.429581 
	C124.300949,147.429581 118.143402,147.429581 111.985863,147.429581 
	C105.731308,147.429581 99.476753,147.429581 92.849525,147.429581 
	C92.849525,141.417862 92.849449,136.112595 92.849541,130.807343 
	C92.849724,119.498138 93.161049,119.141495 104.171234,117.661095 
	C104.451340,117.623428 104.690712,117.282776 105.069901,116.990219 
	C105.069901,114.626488 105.069901,112.174843 105.069901,109.150551 
	C99.739204,109.150551 94.617760,109.150551 88.497971,109.150497 
M186.927689,169.364716 
	C182.856476,155.793900 182.755447,142.418976 189.619339,129.667053 
	C194.299500,120.972122 201.887344,116.530220 211.787354,117.325279 
	C221.471222,118.102974 226.695282,124.451088 229.462387,133.255051 
	C231.413086,139.461502 232.083298,139.766174 239.288116,137.875992 
	C239.288116,131.985977 239.079285,125.995522 239.370010,120.029404 
	C239.532669,116.691223 238.300919,114.863106 235.443680,113.386032 
	C209.657913,100.055695 178.410629,109.227890 167.950455,137.965591 
	C159.917526,160.034698 167.306580,183.943497 186.126495,194.262665 
	C202.941269,203.482376 220.097244,201.591705 236.898544,193.554245 
	C237.775360,193.134781 238.701050,191.993637 238.872864,191.054688 
	C240.236771,183.600861 241.423447,176.114594 242.666443,168.626907 
	C234.083176,167.543823 234.097214,167.549850 231.013596,174.730377 
	C230.360779,176.250534 229.670853,177.773422 228.817139,179.185745 
	C220.863464,192.343567 205.273361,194.177170 194.851898,182.777527 
	C191.578781,179.197205 189.655060,174.383286 186.927689,169.364716 
z"/>
<path fill="#FCFBFD" opacity="1.000000" stroke="none" 
	d="
M88.997147,109.150528 
	C94.617760,109.150551 99.739204,109.150551 105.069901,109.150551 
	C105.069901,112.174843 105.069901,114.626488 105.069901,116.990219 
	C104.690712,117.282776 104.451340,117.623428 104.171234,117.661095 
	C93.161049,119.141495 92.849724,119.498138 92.849541,130.807343 
	C92.849449,136.112595 92.849525,141.417862 92.849525,147.429581 
	C99.476753,147.429581 105.731308,147.429581 111.985863,147.429581 
	C118.143402,147.429581 124.300949,147.429581 130.960739,147.429581 
	C130.960739,139.102982 131.297455,130.993744 130.690277,122.955818 
	C130.561417,121.249786 127.152946,119.486191 124.946533,118.348083 
	C123.436668,117.569260 121.391151,117.828873 119.214752,117.582291 
	C119.214752,114.958229 119.214752,112.383415 119.214752,109.476425 
	C132.894989,109.476425 146.643661,109.476425 160.783264,109.476425 
	C160.783264,112.001930 160.783264,114.549561 160.783264,117.126694 
	C160.522797,117.308388 160.273926,117.623276 159.988831,117.660469 
	C149.190506,119.069084 148.730804,119.582214 148.730499,130.357285 
	C148.730072,145.688599 148.730362,161.019897 148.730392,176.351212 
	C148.730408,188.167068 149.056137,188.545792 160.878754,190.177658 
	C160.878754,192.566437 160.878754,195.001389 160.878754,197.811035 
	C147.064850,197.811035 133.188858,197.811035 119.070129,197.811035 
	C119.070129,195.247910 119.070129,192.826813 119.070129,190.162979 
	C120.149078,190.014938 121.105995,189.903992 122.055962,189.750107 
	C130.082336,188.449707 131.242905,187.122726 131.265335,179.112793 
	C131.285248,172.000351 131.269501,164.887802 131.269501,157.545044 
	C118.239807,157.545044 105.822189,157.545044 92.975586,157.545044 
	C92.975586,166.401611 92.635544,175.039368 93.234840,183.611435 
	C93.370384,185.550110 96.553825,187.617783 98.743660,188.956314 
	C100.331505,189.926880 102.594887,189.792267 104.925972,190.217804 
	C104.925972,192.528534 104.925972,194.944839 104.925972,197.769440 
	C91.216644,197.769440 77.346680,197.769440 63.197430,197.769440 
	C63.197430,195.346603 63.197430,192.925598 63.197430,190.170471 
	C63.783298,190.076126 64.388168,189.963593 64.997253,189.882904 
	C74.555855,188.616364 75.428627,187.612442 75.429276,177.850555 
	C75.430328,162.185959 75.429733,146.521362 75.429497,130.856766 
	C75.429329,119.509544 74.937263,118.953186 63.298622,117.513374 
	C63.298622,114.994560 63.298622,112.414528 63.298622,109.150497 
	C71.619759,109.150497 80.058861,109.150497 88.997147,109.150528 
z"/>
<path fill="#FCFBFD" opacity="1.000000" stroke="none" 
	d="
M187.020691,169.749359 
	C189.655060,174.383286 191.578781,179.197205 194.851898,182.777527 
	C205.273361,194.177170 220.863464,192.343567 228.817139,179.185745 
	C229.670853,177.773422 230.360779,176.250534 231.013596,174.730377 
	C234.097214,167.549850 234.083176,167.543823 242.666443,168.626907 
	C241.423447,176.114594 240.236771,183.600861 238.872864,191.054688 
	C238.701050,191.993637 237.775360,193.134781 236.898544,193.554245 
	C220.097244,201.591705 202.941269,203.482376 186.126495,194.262665 
	C167.306580,183.943497 159.917526,160.034698 167.950455,137.965591 
	C178.410629,109.227890 209.657913,100.055695 235.443680,113.386032 
	C238.300919,114.863106 239.532669,116.691223 239.370010,120.029404 
	C239.079285,125.995522 239.288116,131.985977 239.288116,137.875992 
	C232.083298,139.766174 231.413086,139.461502 229.462387,133.255051 
	C226.695282,124.451088 221.471222,118.102974 211.787354,117.325279 
	C201.887344,116.530220 194.299500,120.972122 189.619339,129.667053 
	C182.755447,142.418976 182.856476,155.793900 187.020691,169.749359 
z"/>
</svg>