<svg xmlns="http://www.w3.org/2000/svg" viewBox="0 0 24 24">
  <rect width="20" height="20" x="2" y="2" rx="3" fill="#F7DF1E"/>
  <path fill="#252525" d="M11 7.5h2.2v7.2c0 2-.9 2.8-2.6 2.8-.6 0-1.3-.1-1.8-.3l.2-1.6c.3.1.7.2 1 .2.6 0 1-.3 1-1.1zm4.8 7c.4.6 1 1 1.8 1 .7 0 1.1-.3 1.1-.8 0-.6-.5-.8-1.3-1.2l-.4-.2c-1.1-.5-1.9-1.2-1.9-2.6 0-1.3 1-2.3 2.6-2.3 1.1 0 1.9.4 2.5 1.4l-1.3.9c-.3-.5-.6-.7-1.1-.7s-.9.3-.9.8.4.8 1.2 1.2l.4.2c1.3.6 2 1.3 2 2.6 0 1.5-1.2 2.4-2.7 2.4-1.5 0-2.5-.7-3.1-1.6z"/>
</svg>
